<?xml version="1.0" encoding="UTF-8"?>
<svg id="Layer_1" data-name="Layer 1" xmlns="http://www.w3.org/2000/svg" viewBox="0 0 413.62 361.53">
  <rect width="413.62" height="361.53" rx="106.57" ry="106.57" style="fill: #231f20; stroke-width: 0px;"/>
  <path d="M261.23,66.47c-1.56,3.76-3.12,7.53-4.68,11.29-3.07,7.4-6.14,14.81-9.21,22.21-2.16,5.22-4.33,10.44-6.49,15.66l-1.78,4.29-5.55,13.38c-2.78,6.7-5.55,13.39-8.33,20.09-3.15,7.6-6.31,15.21-9.46,22.81s-6.04,14.57-9.06,21.85c-2.37,5.71-4.73,11.41-7.1,17.12-1.19,2.87-2.41,5.74-3.58,8.62-.05.13-.11.26-.16.39,7.45-.78,14.91-1.57,22.36-2.35-.58-1.4-1.16-2.81-1.75-4.21l-4.75-11.46c-2.34-5.65-4.69-11.3-7.03-16.95l-8.58-20.69c-3.13-7.55-6.26-15.11-9.4-22.66s-6.36-15.33-9.53-22.99l-8.85-21.33c-2.49-6.01-4.98-12.02-7.48-18.03-1.79-4.32-3.58-8.65-5.38-12.97-.85-2.05-1.66-4.12-2.55-6.15-.04-.09-.07-.18-.11-.27-1.04-2.5-3.74-4.28-6.26-4.94-2.87-.75-6.61-.34-9.26.97-5.19,2.58-9.76,8.24-7.26,14.28.58,1.4,1.16,2.81,1.75,4.21l4.75,11.46c2.34,5.65,4.69,11.3,7.03,16.95,2.86,6.9,5.72,13.79,8.58,20.69,3.13,7.55,6.26,15.11,9.4,22.66s6.36,15.33,9.53,22.99l8.85,21.33c2.49,6.01,4.98,12.02,7.48,18.03,1.79,4.32,3.58,8.65,5.38,12.97.85,2.05,1.64,4.13,2.55,6.15.04.09.07.18.11.27.65,1.57,2.19,3.07,3.64,3.9,2.16,1.24,4.71,1.51,7.13,1.27,2.25-.22,4.24-.9,6.18-2.05,2.11-1.24,4.43-3.13,5.4-5.47.82-1.99,1.65-3.98,2.47-5.97,2.13-5.13,4.25-10.26,6.38-15.39,2.91-7.01,5.82-14.03,8.72-21.04,3.17-7.64,6.34-15.28,9.5-22.92,2.91-7.01,5.82-14.03,8.72-21.04,2.13-5.15,4.27-10.3,6.4-15.44l2.45-5.91,4.72-11.39c3.07-7.41,6.14-14.82,9.22-22.22,2.15-5.19,4.31-10.39,6.46-15.58.11-.27.22-.54.34-.81,1.07-2.58,1.63-5.28.42-7.96-1.09-2.41-3.69-4.38-6.26-4.94-3.06-.67-6.42-.44-9.26.97s-5.64,3.42-6.84,6.32h0Z" style="fill: #fff; stroke-width: 0px;"/>
  <path d="M92.37,135.14c.92,1.44,1.83,2.88,2.75,4.33,2.51,3.95,5.01,7.89,7.52,11.84,3.69,5.81,7.38,11.63,11.08,17.44,4.5,7.09,9.01,14.18,13.51,21.27,4.93,7.77,9.87,15.53,14.8,23.3,5,7.88,10,15.75,15.01,23.63,4.64,7.31,9.29,14.62,13.93,21.94,3.93,6.18,7.85,12.36,11.78,18.54,2.84,4.46,5.67,8.93,8.51,13.39,1.34,2.1,2.67,4.21,4.01,6.31.06.09.12.18.17.27.99,1.56,2,2.95,3.64,3.9,2.16,1.24,4.71,1.51,7.13,1.27,2.25-.22,4.24-.9,6.18-2.05,2.4-1.41,3.9-3.1,5.4-5.47,1.3-2.04,2.6-4.09,3.89-6.13l10.1-15.9c4.58-7.21,9.16-14.43,13.75-21.64,4.99-7.86,9.98-15.71,14.97-23.57,4.58-7.21,9.16-14.42,13.74-21.63,3.36-5.29,6.72-10.58,10.08-15.87l3.86-6.08c2.47-3.89,4.95-7.79,7.42-11.68,4.86-7.65,9.71-15.29,14.57-22.94,3.39-5.33,6.77-10.66,10.16-16,.18-.28.35-.55.53-.83,1.37-2.15,1.45-5.68.42-7.96-1.09-2.41-3.69-4.38-6.26-4.94-3.06-.67-6.42-.44-9.26.97l-2.88,1.7c-1.67,1.24-3,2.78-3.96,4.62-2.45,3.86-4.91,7.73-7.36,11.59-4.85,7.64-9.71,15.29-14.56,22.93-3.4,5.36-6.8,10.71-10.2,16.07l-2.8,4.41c-2.91,4.59-5.83,9.18-8.74,13.77-4.37,6.88-8.74,13.76-13.11,20.64-4.96,7.82-9.93,15.64-14.89,23.45s-9.51,14.98-14.27,22.47c-3.74,5.89-7.49,11.79-11.23,17.68-1.87,2.95-3.77,5.89-5.62,8.86-.08.13-.17.26-.25.4l22.36-2.35c-.92-1.44-1.83-2.88-2.75-4.33-2.51-3.95-5.01-7.89-7.52-11.84l-11.08-17.44c-4.5-7.09-9.01-14.18-13.51-21.27-4.93-7.77-9.87-15.53-14.8-23.3s-10-15.75-15.01-23.63c-4.64-7.31-9.29-14.62-13.93-21.94-3.93-6.18-7.85-12.36-11.78-18.54l-8.51-13.39c-1.34-2.1-2.67-4.21-4.01-6.31-.06-.09-.12-.18-.17-.27-.54-1.32-1.4-2.34-2.57-3.07-1.03-.96-2.26-1.59-3.68-1.87-2.87-.75-6.61-.34-9.26.97s-5.54,3.42-6.84,6.32c-1.04,2.31-1.9,5.62-.42,7.96h0Z" style="fill: #fff; stroke-width: 0px;"/>
</svg>